<svg data-name="그룹 604" xmlns="http://www.w3.org/2000/svg" width="166.091" height="36.001" viewBox="0 0 166.091 36.001">
    <defs>
        <clipPath id="h33d6o6mba">
            <path data-name="사각형 370" style="fill:none" d="M0 0h166.091v36.001H0z"/>
        </clipPath>
    </defs>
    <g data-name="그룹 334" style="clip-path:url(#h33d6o6mba)">
        <path data-name="패스 28" d="M0 46.633a2.758 2.758 0 0 0 .582 1.7l9.658-2.9a1.814 1.814 0 0 1-.391-1.112V33.248l.012-.306A1.81 1.81 0 0 0 8.8 31.389l-.728-.321-5.982-2.629-.308-.139a1.3 1.3 0 0 0-.457-.083A1.325 1.325 0 0 0 0 29.546z" transform="translate(0 -22.877)" style="fill:#1f80c6"/>
        <path data-name="패스 29" d="M13.377 119.623a1.818 1.818 0 0 1-.628-.514l-9.668 2.9a2.782 2.782 0 0 0 1.009.807l8.948 4.016a3.521 3.521 0 0 0 2.464.23l6.624-2.192a.742.742 0 0 0 .072-1.382z" transform="translate(-2.498 -96.551)" style="fill:#4ca7db"/>
        <path data-name="패스 30" d="M16.476 7.54a1.819 1.819 0 0 1 .837.742l9.644-2.894a2.786 2.786 0 0 0-1.221-1.068L16.712.285A3.519 3.519 0 0 0 14.165.2L7.743 2.328A.743.743 0 0 0 7.7 3.695z" transform="translate(-5.891)" style="fill:#a09f9f"/>
        <path data-name="패스 31" d="M70.361 29.76v-.03a2.418 2.418 0 0 0-.374-1.286L60.4 31.339c.147.249.114.536.3.843v11.21a1.294 1.294 0 0 0 1.288 1.324 1.171 1.171 0 0 0 .247-.026l.68-.2 5.965-1.767.373-.119a1.762 1.762 0 0 0 1.106-1.694z" transform="translate(-48.96 -23.058)" style="fill:#777"/>
        <path data-name="패스 32" d="M169.892 40.192h7.689a1.637 1.637 0 0 1 1.533 1.5v.095a1.57 1.57 0 0 0 1.529 1.433h.695v-2.054a3.159 3.159 0 0 0-2.04-3 2.909 2.909 0 0 0-.95-.249h-9.226A3.278 3.278 0 0 0 166 41.166v4.2a3.1 3.1 0 0 0 .6 1.787h.013c.043.062.113.182.113.182a3.116 3.116 0 0 0 2.4 1.188h8.458a1.429 1.429 0 0 1 1.487 1.453v2.66a1.371 1.371 0 0 1-1.487 1.379h-7.689a1.484 1.484 0 0 1-1.538-1.3v-.02a1.5 1.5 0 0 0-1.527-1.331H166v2.1a3.062 3.062 0 0 0 2.09 2.873 3.208 3.208 0 0 0 1.033.137h9.226a2.958 2.958 0 0 0 2.99-3.01v-4.26a3 3 0 0 0-.637-1.914l.018-.04a3.072 3.072 0 0 0-2.372-1.192h-8.458a1.556 1.556 0 0 1-1.62-1.467v-2.66a1.8 1.8 0 0 1 1.62-1.743" transform="translate(-134.562 -30.738)" style="fill:#515151"/>
        <path data-name="패스 33" d="M705.151 82.637a1.718 1.718 0 0 0-1.718-1.718h-11.715A1.718 1.718 0 0 0 690 82.637v6.981a1.718 1.718 0 0 0 1.718 1.718h11.715a1.718 1.718 0 0 0 1.718-1.718zm-2.273 5.563a.859.859 0 0 1-.859.859h-8.888a.859.859 0 0 1-.859-.859v-3.96a.859.859 0 0 1 .859-.859h8.888a.859.859 0 0 1 .859.859z" transform="translate(-559.324 -65.594)" style="fill:#515151"/>
        <path data-name="패스 34" d="M267.667 80.919H255.81a1.9 1.9 0 0 0-1.81 1.822V97.7a1.856 1.856 0 0 0 1.81 1.778h.463v-8.143h11.394a1.65 1.65 0 0 0 1.673-1.676v-6.918a1.778 1.778 0 0 0-1.673-1.822m-.789 7.328a.816.816 0 0 1-.816.816h-8.974a.816.816 0 0 1-.816-.816V84.2a.816.816 0 0 1 .816-.816h8.974a.816.816 0 0 1 .816.816z" transform="translate(-205.896 -65.594)" style="fill:#515151"/>
        <path data-name="패스 35" d="M781.682 53.271c0-.472.4-1.079.869-1.079h3.487v-.356a1.839 1.839 0 0 0-1.637-1.917h-3.286a1.9 1.9 0 0 0-1.706 1.917v3.954H777.7a1.778 1.778 0 0 0-1.7 1.8v.472h3.409v14.517a1.759 1.759 0 0 0 1.706 1.771h.567V58.063h3.409v-.472a1.784 1.784 0 0 0-1.7-1.8h-1.705z" transform="translate(-629.037 -40.465)" style="fill:#515151"/>
        <path data-name="패스 36" d="M356.532 80.919h-11.858a1.736 1.736 0 0 0-1.652 1.373 2.163 2.163 0 0 0-.024.447v1.4h1.752a.844.844 0 0 0 .632-.375c.013-.021.034-.033.049-.052a.831.831 0 0 1 .678-.331h8.991a.852.852 0 1 1 0 1.7h-10.426a1.644 1.644 0 0 0-1.674 1.67v2.906a1.654 1.654 0 0 0 1.676 1.678h11.858a1.767 1.767 0 0 0 1.806-1.678v-6.918a1.891 1.891 0 0 0-1.806-1.82m-1.434 7.954h-8.984a.764.764 0 1 1 0-1.515h8.984a.764.764 0 1 1 0 1.515" transform="translate(-278.039 -65.594)" style="fill:#515151"/>
        <path data-name="패스 37" d="M441.48 84.139h1.86v-1.4a2.117 2.117 0 0 0-.1-.449 1.82 1.82 0 0 0-1.725-1.373h-11.861A1.762 1.762 0 0 0 428 82.741v6.918a1.634 1.634 0 0 0 1.654 1.676h11.857a1.77 1.77 0 0 0 1.732-1.328 1.58 1.58 0 0 0 .1-.348v-1.543h-1.856a.95.95 0 0 0-.655.409c-.028.053-.057.048-.094.093a.8.8 0 0 1-.658.255h-8.987c-.473 0-1.006-.195-1.006-.667v-4.03c0-.472.533-.8 1.006-.8h8.987a.84.84 0 0 1 .7.32c.009.013.016.051.025.064a.864.864 0 0 0 .681.373" transform="translate(-346.943 -65.594)" style="fill:#515151"/>
        <path data-name="패스 38" d="M495.325 121.593a.88.88 0 0 0-.1.147.858.858 0 0 0 .1-.147" transform="translate(-401.439 -98.565)" style="fill:#515151"/>
        <path data-name="패스 39" d="M614.538 115.036c-.052 0-.1 0-.154-.008.051 0 .1.008.154.008" transform="translate(-498.028 -93.243)" style="fill:#515151"/>
        <path data-name="패스 40" d="M606.373 105.837v.009-.023z" transform="translate(-491.535 -85.781)" style="fill:#515151"/>
        <path data-name="패스 41" d="M614.27 115.014h-.026.026" transform="translate(-497.915 -93.23)" style="fill:#515151"/>
        <path data-name="패스 42" d="M615.208 115.071" transform="translate(-498.689 -93.278)" style="fill:#515151"/>
        <path data-name="패스 43" d="M609.189 83.381h8.988a.915.915 0 0 1 .85.758h2.125v-1.4a1.673 1.673 0 0 0-1.54-1.822h-11.858a1.761 1.761 0 0 0-1.683 1.794v2.931a1.72 1.72 0 0 0 1.49 1.71h10.712a.74.74 0 0 1 .761.755.783.783 0 0 1-.859.76h-8.988a.917.917 0 0 1-.85-.758H606v1.543a1.719 1.719 0 0 0 1.754 1.676h11.857a1.543 1.543 0 0 0 1.54-1.676v-3.43h.077c-.014 0-.029-.088-.046-.129a1.6 1.6 0 0 0-1.571-1.007h-10.47a.847.847 0 0 1-.811-.86.541.541 0 0 1 0-.062.863.863 0 0 1 .855-.782" transform="translate(-491.232 -65.594)" style="fill:#515151"/>
        <path data-name="패스 44" d="M518.277 87.358H528.7a1.668 1.668 0 0 0 1.641-1.729v-2.888a1.752 1.752 0 0 0-1.641-1.822h-11.858A1.925 1.925 0 0 0 515 82.741v6.918a1.8 1.8 0 0 0 1.842 1.676H528.7a1.666 1.666 0 0 0 1.639-1.328 1.49 1.49 0 0 0 0-.348v-1.543h-1.658a.95.95 0 0 0-.7.469c0 .008-.01-.038-.016-.03a.791.791 0 0 1-.7.318h-8.987a.764.764 0 1 1 0-1.515m0-3.977h8.984a.852.852 0 1 1 0 1.7h-8.984a.852.852 0 1 1 0-1.7" transform="translate(-417.466 -65.594)" style="fill:#515151"/>
        <path data-name="패스 45" d="M832.6 68.76h-1.8a1.878 1.878 0 0 0-1.8 1.818v.455h3.6v6.519a1.55 1.55 0 0 0 1.6 1.625h3.511v-1.36c0-.472-.263-1.1-.735-1.1h-1.341a.817.817 0 0 1-.9-.614l-.03.035c0-.001-.029.036-.029.031v-5.137h3.409v-.455a1.72 1.72 0 0 0-1.606-1.818h-1.8v-2.84h-.463a1.723 1.723 0 0 0-1.62 1.809z" transform="translate(-671.999 -53.435)" style="fill:#515151"/>
        <path data-name="패스 46" d="M541.211 155.423a6.7 6.7 0 0 1 1.047-3.627l.77.319a7.041 7.041 0 0 0 0 6.615l-.77.319a6.676 6.676 0 0 1-1.047-3.626" transform="translate(-438.713 -123.048)" style="fill:#4f5150"/>
        <path data-name="패스 47" d="M560.1 157.372h-2.41v2.108h-1.123v-2.108h-2.357v-.881h5.89zm-5.644-2.032c1.359-.152 1.893-.7 2.011-1.206h-1.754v-.874h4.861v.874h-1.727c.118.506.652 1.054 2.011 1.206l-.4.874a2.8 2.8 0 0 0-4.6 0z" transform="translate(-449.25 -124.235)" style="fill:#4f5150"/>
        <path data-name="패스 48" d="M588.662 158.729a7.042 7.042 0 0 0 0-6.615l.77-.319a6.8 6.8 0 0 1 0 7.253z" transform="translate(-477.178 -123.047)" style="fill:#4f5150"/>
        <path data-name="패스 49" d="M608.465 155.686v.874h-5.852v-.874h2.032v-1.068h1.123v1.068zm-.638 2.434c0 .77-.922 1.248-2.33 1.248s-2.33-.478-2.33-1.248.922-1.255 2.33-1.255 2.33.478 2.33 1.255m-1.318-2.843a5.559 5.559 0 0 0 .166-1.29h-3.425v-.874h4.55v.527a6.172 6.172 0 0 1-.187 1.754zm.2 2.843c0-.291-.416-.416-1.213-.416s-1.214.125-1.214.416.409.409 1.214.409 1.213-.125 1.213-.409" transform="translate(-488.487 -124.116)" style="fill:#4f5150"/>
        <path data-name="패스 50" d="M639.259 152.164c0 1.817-1.033 3.03-3.017 3.564l-.458-.874c1.387-.361 2.1-1.019 2.253-1.81h-1.962v-.881zm-1.4 5.055h3.349v.881h-4.472v-2.268h1.123zm3.98-3.8v.908h-.818v1.973H639.9v-4.611h1.123v1.733z" transform="translate(-515.377 -122.959)" style="fill:#4f5150"/>
        <path data-name="패스 51" d="M675.8 157.939v.894h-5.894v-.894h2.351v-1.38h1.123v1.38zm-.617-1.1a2.616 2.616 0 0 0-4.736 0l-.451-.929c1.657-.257 2.219-1.276 2.219-2.08v-.458h1.2v.458c0 .832.548 1.824 2.226 2.08z" transform="translate(-543.04 -124.324)" style="fill:#4f5150"/>
        <path data-name="패스 52" d="M709.483 159.679H703.6v-.9h5.887zm-4.653-4.4h-.818v-.879h5.027v.881h-.818v1.789h.79v.881h-4.958v-.881h.777zm2.274 0h-1.158v1.789h1.154z" transform="translate(-570.345 -125.155)" style="fill:#4f5150"/>
        <path data-name="패스 53" d="M743.176 159.366h-5.894v-.894h5.894zm-.6-1.671h-4.639v-3.7h4.6v.881h-3.453v.534h3.294v.853h-3.294v.562h3.495z" transform="translate(-597.651 -124.828)" style="fill:#4f5150"/>
    </g>
</svg>
